<mxfile host="app.diagrams.net" modified="2023-08-05T15:48:01.752Z" agent="Mozilla/5.0 (Windows NT 10.0; Win64; x64; rv:109.0) Gecko/20100101 Firefox/115.0" etag="vyV1-RPw-qlUQ3prXftp" version="21.6.6" type="github">
  <diagram name="Page-1" id="XcAM8PGjLE5kWtJWkIka">
    <mxGraphModel dx="1434" dy="774" grid="1" gridSize="10" guides="1" tooltips="1" connect="1" arrows="1" fold="1" page="1" pageScale="1" pageWidth="850" pageHeight="1100" background="none" math="0" shadow="0">
      <root>
        <mxCell id="0" />
        <mxCell id="1" parent="0" />
        <mxCell id="TmukQRCo_zgDMOWgsUDj-91" value="" style="group" parent="1" vertex="1" connectable="0">
          <mxGeometry x="230" y="390" width="360" height="280" as="geometry" />
        </mxCell>
        <mxCell id="TmukQRCo_zgDMOWgsUDj-3" value="" style="rounded=0;whiteSpace=wrap;html=1;container=0;" parent="TmukQRCo_zgDMOWgsUDj-91" vertex="1">
          <mxGeometry x="240" y="40" width="40" height="40" as="geometry" />
        </mxCell>
        <mxCell id="TmukQRCo_zgDMOWgsUDj-6" value="" style="rounded=0;whiteSpace=wrap;html=1;container=0;fillColor=#d5e8d4;strokeColor=#82b366;" parent="TmukQRCo_zgDMOWgsUDj-91" vertex="1">
          <mxGeometry x="240" y="80" width="40" height="40" as="geometry" />
        </mxCell>
        <mxCell id="TmukQRCo_zgDMOWgsUDj-7" value="" style="rounded=0;whiteSpace=wrap;html=1;container=0;fillColor=#d5e8d4;strokeColor=#82b366;" parent="TmukQRCo_zgDMOWgsUDj-91" vertex="1">
          <mxGeometry x="240" y="120" width="40" height="40" as="geometry" />
        </mxCell>
        <mxCell id="TmukQRCo_zgDMOWgsUDj-8" value="" style="rounded=0;whiteSpace=wrap;html=1;container=0;" parent="TmukQRCo_zgDMOWgsUDj-91" vertex="1">
          <mxGeometry x="240" y="160" width="40" height="40" as="geometry" />
        </mxCell>
        <mxCell id="TmukQRCo_zgDMOWgsUDj-9" value="" style="rounded=0;whiteSpace=wrap;html=1;container=0;" parent="TmukQRCo_zgDMOWgsUDj-91" vertex="1">
          <mxGeometry x="240" y="200" width="40" height="40" as="geometry" />
        </mxCell>
        <mxCell id="TmukQRCo_zgDMOWgsUDj-10" value="" style="rounded=0;whiteSpace=wrap;html=1;container=0;" parent="TmukQRCo_zgDMOWgsUDj-91" vertex="1">
          <mxGeometry x="280" y="40" width="40" height="40" as="geometry" />
        </mxCell>
        <mxCell id="TmukQRCo_zgDMOWgsUDj-11" value="" style="rounded=0;whiteSpace=wrap;html=1;container=0;" parent="TmukQRCo_zgDMOWgsUDj-91" vertex="1">
          <mxGeometry x="280" y="80" width="40" height="40" as="geometry" />
        </mxCell>
        <mxCell id="TmukQRCo_zgDMOWgsUDj-12" value="" style="rounded=0;whiteSpace=wrap;html=1;container=0;" parent="TmukQRCo_zgDMOWgsUDj-91" vertex="1">
          <mxGeometry x="280" y="120" width="40" height="40" as="geometry" />
        </mxCell>
        <mxCell id="TmukQRCo_zgDMOWgsUDj-13" value="" style="rounded=0;whiteSpace=wrap;html=1;container=0;" parent="TmukQRCo_zgDMOWgsUDj-91" vertex="1">
          <mxGeometry x="280" y="160" width="40" height="40" as="geometry" />
        </mxCell>
        <mxCell id="TmukQRCo_zgDMOWgsUDj-14" value="" style="rounded=0;whiteSpace=wrap;html=1;container=0;" parent="TmukQRCo_zgDMOWgsUDj-91" vertex="1">
          <mxGeometry x="280" y="200" width="40" height="40" as="geometry" />
        </mxCell>
        <mxCell id="TmukQRCo_zgDMOWgsUDj-22" value="" style="rounded=0;whiteSpace=wrap;html=1;container=0;" parent="TmukQRCo_zgDMOWgsUDj-91" vertex="1">
          <mxGeometry x="160" y="40" width="40" height="40" as="geometry" />
        </mxCell>
        <mxCell id="TmukQRCo_zgDMOWgsUDj-23" value="" style="rounded=0;whiteSpace=wrap;html=1;container=0;" parent="TmukQRCo_zgDMOWgsUDj-91" vertex="1">
          <mxGeometry x="160" y="80" width="40" height="40" as="geometry" />
        </mxCell>
        <mxCell id="TmukQRCo_zgDMOWgsUDj-24" value="" style="rounded=0;whiteSpace=wrap;html=1;container=0;" parent="TmukQRCo_zgDMOWgsUDj-91" vertex="1">
          <mxGeometry x="160" y="120" width="40" height="40" as="geometry" />
        </mxCell>
        <mxCell id="TmukQRCo_zgDMOWgsUDj-25" value="" style="rounded=0;whiteSpace=wrap;html=1;container=0;" parent="TmukQRCo_zgDMOWgsUDj-91" vertex="1">
          <mxGeometry x="160" y="160" width="40" height="40" as="geometry" />
        </mxCell>
        <mxCell id="TmukQRCo_zgDMOWgsUDj-26" value="" style="rounded=0;whiteSpace=wrap;html=1;container=0;" parent="TmukQRCo_zgDMOWgsUDj-91" vertex="1">
          <mxGeometry x="160" y="200" width="40" height="40" as="geometry" />
        </mxCell>
        <mxCell id="TmukQRCo_zgDMOWgsUDj-27" value="" style="rounded=0;whiteSpace=wrap;html=1;container=0;" parent="TmukQRCo_zgDMOWgsUDj-91" vertex="1">
          <mxGeometry x="200" y="40" width="40" height="40" as="geometry" />
        </mxCell>
        <mxCell id="TmukQRCo_zgDMOWgsUDj-28" value="" style="rounded=0;whiteSpace=wrap;html=1;container=0;fillColor=#d5e8d4;strokeColor=#82b366;" parent="TmukQRCo_zgDMOWgsUDj-91" vertex="1">
          <mxGeometry x="200" y="80" width="40" height="40" as="geometry" />
        </mxCell>
        <mxCell id="TmukQRCo_zgDMOWgsUDj-29" value="" style="rounded=0;whiteSpace=wrap;html=1;container=0;fillColor=#d5e8d4;strokeColor=#82b366;" parent="TmukQRCo_zgDMOWgsUDj-91" vertex="1">
          <mxGeometry x="200" y="120" width="40" height="40" as="geometry" />
        </mxCell>
        <mxCell id="TmukQRCo_zgDMOWgsUDj-30" value="" style="rounded=0;whiteSpace=wrap;html=1;container=0;" parent="TmukQRCo_zgDMOWgsUDj-91" vertex="1">
          <mxGeometry x="200" y="160" width="40" height="40" as="geometry" />
        </mxCell>
        <mxCell id="TmukQRCo_zgDMOWgsUDj-31" value="" style="rounded=0;whiteSpace=wrap;html=1;container=0;" parent="TmukQRCo_zgDMOWgsUDj-91" vertex="1">
          <mxGeometry x="200" y="200" width="40" height="40" as="geometry" />
        </mxCell>
        <mxCell id="TmukQRCo_zgDMOWgsUDj-32" value="" style="rounded=0;whiteSpace=wrap;html=1;container=0;" parent="TmukQRCo_zgDMOWgsUDj-91" vertex="1">
          <mxGeometry x="80" y="40" width="40" height="40" as="geometry" />
        </mxCell>
        <mxCell id="TmukQRCo_zgDMOWgsUDj-33" value="" style="rounded=0;whiteSpace=wrap;html=1;container=0;" parent="TmukQRCo_zgDMOWgsUDj-91" vertex="1">
          <mxGeometry x="80" y="80" width="40" height="40" as="geometry" />
        </mxCell>
        <mxCell id="TmukQRCo_zgDMOWgsUDj-34" value="" style="rounded=0;whiteSpace=wrap;html=1;container=0;" parent="TmukQRCo_zgDMOWgsUDj-91" vertex="1">
          <mxGeometry x="80" y="120" width="40" height="40" as="geometry" />
        </mxCell>
        <mxCell id="TmukQRCo_zgDMOWgsUDj-35" value="" style="rounded=0;whiteSpace=wrap;html=1;container=0;" parent="TmukQRCo_zgDMOWgsUDj-91" vertex="1">
          <mxGeometry x="80" y="160" width="40" height="40" as="geometry" />
        </mxCell>
        <mxCell id="TmukQRCo_zgDMOWgsUDj-36" value="" style="rounded=0;whiteSpace=wrap;html=1;container=0;" parent="TmukQRCo_zgDMOWgsUDj-91" vertex="1">
          <mxGeometry x="80" y="200" width="40" height="40" as="geometry" />
        </mxCell>
        <mxCell id="TmukQRCo_zgDMOWgsUDj-37" value="" style="rounded=0;whiteSpace=wrap;html=1;container=0;" parent="TmukQRCo_zgDMOWgsUDj-91" vertex="1">
          <mxGeometry x="120" y="40" width="40" height="40" as="geometry" />
        </mxCell>
        <mxCell id="TmukQRCo_zgDMOWgsUDj-38" value="" style="rounded=0;whiteSpace=wrap;html=1;container=0;" parent="TmukQRCo_zgDMOWgsUDj-91" vertex="1">
          <mxGeometry x="120" y="80" width="40" height="40" as="geometry" />
        </mxCell>
        <mxCell id="TmukQRCo_zgDMOWgsUDj-39" value="" style="rounded=0;whiteSpace=wrap;html=1;container=0;" parent="TmukQRCo_zgDMOWgsUDj-91" vertex="1">
          <mxGeometry x="120" y="120" width="40" height="40" as="geometry" />
        </mxCell>
        <mxCell id="TmukQRCo_zgDMOWgsUDj-40" value="" style="rounded=0;whiteSpace=wrap;html=1;container=0;" parent="TmukQRCo_zgDMOWgsUDj-91" vertex="1">
          <mxGeometry x="120" y="160" width="40" height="40" as="geometry" />
        </mxCell>
        <mxCell id="TmukQRCo_zgDMOWgsUDj-41" value="" style="rounded=0;whiteSpace=wrap;html=1;container=0;" parent="TmukQRCo_zgDMOWgsUDj-91" vertex="1">
          <mxGeometry x="120" y="200" width="40" height="40" as="geometry" />
        </mxCell>
        <mxCell id="TmukQRCo_zgDMOWgsUDj-52" value="" style="rounded=0;whiteSpace=wrap;html=1;container=0;fillColor=#f8cecc;strokeColor=#b85450;" parent="TmukQRCo_zgDMOWgsUDj-91" vertex="1">
          <mxGeometry x="40" y="40" width="40" height="40" as="geometry" />
        </mxCell>
        <mxCell id="TmukQRCo_zgDMOWgsUDj-53" value="" style="rounded=0;whiteSpace=wrap;html=1;container=0;" parent="TmukQRCo_zgDMOWgsUDj-91" vertex="1">
          <mxGeometry x="40" y="80" width="40" height="40" as="geometry" />
        </mxCell>
        <mxCell id="TmukQRCo_zgDMOWgsUDj-54" value="" style="rounded=0;whiteSpace=wrap;html=1;container=0;" parent="TmukQRCo_zgDMOWgsUDj-91" vertex="1">
          <mxGeometry x="40" y="120" width="40" height="40" as="geometry" />
        </mxCell>
        <mxCell id="TmukQRCo_zgDMOWgsUDj-55" value="" style="rounded=0;whiteSpace=wrap;html=1;container=0;" parent="TmukQRCo_zgDMOWgsUDj-91" vertex="1">
          <mxGeometry x="40" y="160" width="40" height="40" as="geometry" />
        </mxCell>
        <mxCell id="TmukQRCo_zgDMOWgsUDj-56" value="" style="rounded=0;whiteSpace=wrap;html=1;container=0;" parent="TmukQRCo_zgDMOWgsUDj-91" vertex="1">
          <mxGeometry x="40" y="200" width="40" height="40" as="geometry" />
        </mxCell>
        <mxCell id="TmukQRCo_zgDMOWgsUDj-57" value="&lt;pre&gt;&lt;b&gt;&lt;font style=&quot;font-size: 15px;&quot;&gt;1&lt;/font&gt;&lt;/b&gt;&lt;/pre&gt;" style="text;html=1;strokeColor=none;fillColor=none;align=center;verticalAlign=middle;whiteSpace=wrap;rounded=0;container=0;" parent="TmukQRCo_zgDMOWgsUDj-91" vertex="1">
          <mxGeometry x="80" width="40" height="40" as="geometry" />
        </mxCell>
        <mxCell id="TmukQRCo_zgDMOWgsUDj-58" value="&lt;b&gt;&lt;font style=&quot;font-size: 15px;&quot;&gt;2&lt;/font&gt;&lt;/b&gt;" style="text;html=1;strokeColor=none;fillColor=none;align=center;verticalAlign=middle;whiteSpace=wrap;rounded=0;container=0;" parent="TmukQRCo_zgDMOWgsUDj-91" vertex="1">
          <mxGeometry x="120" width="40" height="40" as="geometry" />
        </mxCell>
        <mxCell id="TmukQRCo_zgDMOWgsUDj-59" value="&lt;font size=&quot;1&quot;&gt;&lt;b style=&quot;font-size: 15px;&quot;&gt;3&lt;/b&gt;&lt;/font&gt;" style="text;html=1;strokeColor=none;fillColor=none;align=center;verticalAlign=middle;whiteSpace=wrap;rounded=0;container=0;" parent="TmukQRCo_zgDMOWgsUDj-91" vertex="1">
          <mxGeometry x="160" width="40" height="40" as="geometry" />
        </mxCell>
        <mxCell id="TmukQRCo_zgDMOWgsUDj-60" value="&lt;b style=&quot;font-size: 15px;&quot;&gt;4&lt;/b&gt;" style="text;html=1;strokeColor=none;fillColor=none;align=center;verticalAlign=middle;whiteSpace=wrap;rounded=0;container=0;" parent="TmukQRCo_zgDMOWgsUDj-91" vertex="1">
          <mxGeometry x="200" width="40" height="40" as="geometry" />
        </mxCell>
        <mxCell id="TmukQRCo_zgDMOWgsUDj-61" value="&lt;font size=&quot;1&quot;&gt;&lt;b style=&quot;font-size: 15px;&quot;&gt;5&lt;/b&gt;&lt;/font&gt;" style="text;html=1;strokeColor=none;fillColor=none;align=center;verticalAlign=middle;whiteSpace=wrap;rounded=0;container=0;" parent="TmukQRCo_zgDMOWgsUDj-91" vertex="1">
          <mxGeometry x="240" width="40" height="40" as="geometry" />
        </mxCell>
        <mxCell id="TmukQRCo_zgDMOWgsUDj-62" value="&lt;font size=&quot;1&quot;&gt;&lt;b style=&quot;font-size: 15px;&quot;&gt;6&lt;/b&gt;&lt;/font&gt;" style="text;html=1;strokeColor=none;fillColor=none;align=center;verticalAlign=middle;whiteSpace=wrap;rounded=0;container=0;" parent="TmukQRCo_zgDMOWgsUDj-91" vertex="1">
          <mxGeometry x="280" width="40" height="40" as="geometry" />
        </mxCell>
        <mxCell id="TmukQRCo_zgDMOWgsUDj-63" value="&lt;font size=&quot;1&quot;&gt;&lt;b style=&quot;font-size: 15px;&quot;&gt;7&lt;/b&gt;&lt;/font&gt;" style="text;html=1;strokeColor=none;fillColor=none;align=center;verticalAlign=middle;whiteSpace=wrap;rounded=0;container=0;" parent="TmukQRCo_zgDMOWgsUDj-91" vertex="1">
          <mxGeometry x="320" width="40" height="40" as="geometry" />
        </mxCell>
        <mxCell id="TmukQRCo_zgDMOWgsUDj-64" value="&lt;pre&gt;&lt;b&gt;&lt;font style=&quot;font-size: 15px;&quot;&gt;1&lt;/font&gt;&lt;/b&gt;&lt;/pre&gt;" style="text;html=1;strokeColor=none;fillColor=none;align=center;verticalAlign=middle;whiteSpace=wrap;rounded=0;container=0;" parent="TmukQRCo_zgDMOWgsUDj-91" vertex="1">
          <mxGeometry y="80" width="40" height="40" as="geometry" />
        </mxCell>
        <mxCell id="TmukQRCo_zgDMOWgsUDj-65" value="&lt;b&gt;&lt;font style=&quot;font-size: 15px;&quot;&gt;2&lt;/font&gt;&lt;/b&gt;" style="text;html=1;strokeColor=none;fillColor=none;align=center;verticalAlign=middle;whiteSpace=wrap;rounded=0;container=0;" parent="TmukQRCo_zgDMOWgsUDj-91" vertex="1">
          <mxGeometry y="120" width="40" height="40" as="geometry" />
        </mxCell>
        <mxCell id="TmukQRCo_zgDMOWgsUDj-66" value="&lt;font size=&quot;1&quot;&gt;&lt;b style=&quot;font-size: 15px;&quot;&gt;3&lt;/b&gt;&lt;/font&gt;" style="text;html=1;strokeColor=none;fillColor=none;align=center;verticalAlign=middle;whiteSpace=wrap;rounded=0;container=0;" parent="TmukQRCo_zgDMOWgsUDj-91" vertex="1">
          <mxGeometry y="160" width="40" height="40" as="geometry" />
        </mxCell>
        <mxCell id="TmukQRCo_zgDMOWgsUDj-67" value="&lt;b style=&quot;font-size: 15px;&quot;&gt;4&lt;/b&gt;" style="text;html=1;strokeColor=none;fillColor=none;align=center;verticalAlign=middle;whiteSpace=wrap;rounded=0;container=0;" parent="TmukQRCo_zgDMOWgsUDj-91" vertex="1">
          <mxGeometry y="200" width="40" height="40" as="geometry" />
        </mxCell>
        <mxCell id="TmukQRCo_zgDMOWgsUDj-69" value="&lt;font size=&quot;1&quot;&gt;&lt;b style=&quot;font-size: 15px;&quot;&gt;5&lt;/b&gt;&lt;/font&gt;" style="text;html=1;strokeColor=none;fillColor=none;align=center;verticalAlign=middle;whiteSpace=wrap;rounded=0;container=0;" parent="TmukQRCo_zgDMOWgsUDj-91" vertex="1">
          <mxGeometry y="240" width="40" height="40" as="geometry" />
        </mxCell>
        <mxCell id="TmukQRCo_zgDMOWgsUDj-73" value="" style="rounded=0;whiteSpace=wrap;html=1;container=0;" parent="TmukQRCo_zgDMOWgsUDj-91" vertex="1">
          <mxGeometry x="320" y="40" width="40" height="40" as="geometry" />
        </mxCell>
        <mxCell id="TmukQRCo_zgDMOWgsUDj-74" value="" style="rounded=0;whiteSpace=wrap;html=1;container=0;" parent="TmukQRCo_zgDMOWgsUDj-91" vertex="1">
          <mxGeometry x="320" y="80" width="40" height="40" as="geometry" />
        </mxCell>
        <mxCell id="TmukQRCo_zgDMOWgsUDj-75" value="" style="rounded=0;whiteSpace=wrap;html=1;container=0;" parent="TmukQRCo_zgDMOWgsUDj-91" vertex="1">
          <mxGeometry x="320" y="120" width="40" height="40" as="geometry" />
        </mxCell>
        <mxCell id="TmukQRCo_zgDMOWgsUDj-76" value="" style="rounded=0;whiteSpace=wrap;html=1;container=0;" parent="TmukQRCo_zgDMOWgsUDj-91" vertex="1">
          <mxGeometry x="320" y="160" width="40" height="40" as="geometry" />
        </mxCell>
        <mxCell id="TmukQRCo_zgDMOWgsUDj-77" value="" style="rounded=0;whiteSpace=wrap;html=1;container=0;" parent="TmukQRCo_zgDMOWgsUDj-91" vertex="1">
          <mxGeometry x="320" y="200" width="40" height="40" as="geometry" />
        </mxCell>
        <mxCell id="TmukQRCo_zgDMOWgsUDj-78" value="" style="rounded=0;whiteSpace=wrap;html=1;container=0;" parent="TmukQRCo_zgDMOWgsUDj-91" vertex="1">
          <mxGeometry x="240" y="240" width="40" height="40" as="geometry" />
        </mxCell>
        <mxCell id="TmukQRCo_zgDMOWgsUDj-79" value="" style="rounded=0;whiteSpace=wrap;html=1;container=0;" parent="TmukQRCo_zgDMOWgsUDj-91" vertex="1">
          <mxGeometry x="280" y="240" width="40" height="40" as="geometry" />
        </mxCell>
        <mxCell id="TmukQRCo_zgDMOWgsUDj-80" value="" style="rounded=0;whiteSpace=wrap;html=1;container=0;" parent="TmukQRCo_zgDMOWgsUDj-91" vertex="1">
          <mxGeometry x="160" y="240" width="40" height="40" as="geometry" />
        </mxCell>
        <mxCell id="TmukQRCo_zgDMOWgsUDj-81" value="" style="rounded=0;whiteSpace=wrap;html=1;container=0;" parent="TmukQRCo_zgDMOWgsUDj-91" vertex="1">
          <mxGeometry x="200" y="240" width="40" height="40" as="geometry" />
        </mxCell>
        <mxCell id="TmukQRCo_zgDMOWgsUDj-82" value="" style="rounded=0;whiteSpace=wrap;html=1;container=0;fillColor=#dae8fc;strokeColor=#6c8ebf;" parent="TmukQRCo_zgDMOWgsUDj-91" vertex="1">
          <mxGeometry x="80" y="240" width="40" height="40" as="geometry" />
        </mxCell>
        <mxCell id="TmukQRCo_zgDMOWgsUDj-83" value="" style="rounded=0;whiteSpace=wrap;html=1;container=0;fillColor=#dae8fc;strokeColor=#6c8ebf;" parent="TmukQRCo_zgDMOWgsUDj-91" vertex="1">
          <mxGeometry x="120" y="240" width="40" height="40" as="geometry" />
        </mxCell>
        <mxCell id="TmukQRCo_zgDMOWgsUDj-84" value="" style="rounded=0;whiteSpace=wrap;html=1;container=0;fillColor=#dae8fc;strokeColor=#6c8ebf;" parent="TmukQRCo_zgDMOWgsUDj-91" vertex="1">
          <mxGeometry x="40" y="240" width="40" height="40" as="geometry" />
        </mxCell>
        <mxCell id="TmukQRCo_zgDMOWgsUDj-85" value="" style="rounded=0;whiteSpace=wrap;html=1;container=0;" parent="TmukQRCo_zgDMOWgsUDj-91" vertex="1">
          <mxGeometry x="320" y="240" width="40" height="40" as="geometry" />
        </mxCell>
        <mxCell id="TmukQRCo_zgDMOWgsUDj-87" value="&lt;pre&gt;&lt;b&gt;&lt;font style=&quot;font-size: 15px;&quot;&gt;0&lt;/font&gt;&lt;/b&gt;&lt;/pre&gt;" style="text;html=1;strokeColor=none;fillColor=none;align=center;verticalAlign=middle;whiteSpace=wrap;rounded=0;container=0;" parent="TmukQRCo_zgDMOWgsUDj-91" vertex="1">
          <mxGeometry x="40" width="40" height="40" as="geometry" />
        </mxCell>
        <mxCell id="TmukQRCo_zgDMOWgsUDj-88" value="&lt;pre&gt;&lt;b&gt;&lt;font style=&quot;font-size: 15px;&quot;&gt;0&lt;/font&gt;&lt;/b&gt;&lt;/pre&gt;" style="text;html=1;strokeColor=none;fillColor=none;align=center;verticalAlign=middle;whiteSpace=wrap;rounded=0;container=0;" parent="TmukQRCo_zgDMOWgsUDj-91" vertex="1">
          <mxGeometry y="40" width="40" height="40" as="geometry" />
        </mxCell>
        <mxCell id="TmukQRCo_zgDMOWgsUDj-89" value="&lt;pre&gt;&lt;b&gt;ColdRoom&lt;/b&gt;&lt;/pre&gt;" style="text;html=1;strokeColor=none;fillColor=none;align=center;verticalAlign=middle;whiteSpace=wrap;rounded=0;" parent="TmukQRCo_zgDMOWgsUDj-91" vertex="1">
          <mxGeometry x="210" y="110" width="60" height="30" as="geometry" />
        </mxCell>
        <mxCell id="TmukQRCo_zgDMOWgsUDj-90" value="&lt;pre&gt;&lt;b&gt;Indoor&lt;/b&gt;&lt;/pre&gt;" style="text;html=1;strokeColor=none;fillColor=none;align=center;verticalAlign=middle;whiteSpace=wrap;rounded=0;" parent="TmukQRCo_zgDMOWgsUDj-91" vertex="1">
          <mxGeometry x="70" y="245" width="60" height="30" as="geometry" />
        </mxCell>
        <mxCell id="TmukQRCo_zgDMOWgsUDj-106" value="" style="shape=image;html=1;verticalAlign=top;verticalLabelPosition=bottom;labelBackgroundColor=#ffffff;imageAspect=0;aspect=fixed;image=https://cdn1.iconfinder.com/data/icons/unicons-line-vol-5/24/robot-128.png" parent="TmukQRCo_zgDMOWgsUDj-91" vertex="1">
          <mxGeometry x="45" y="45" width="30" height="30" as="geometry" />
        </mxCell>
        <mxCell id="7q-zUmtNP64scrMjcJ8D-5" value="" style="endArrow=classic;html=1;rounded=0;exitX=0.5;exitY=0;exitDx=0;exitDy=0;entryX=0.5;entryY=1;entryDx=0;entryDy=0;fillColor=#f8cecc;strokeColor=#b85450;strokeWidth=2;" parent="TmukQRCo_zgDMOWgsUDj-91" source="TmukQRCo_zgDMOWgsUDj-53" target="TmukQRCo_zgDMOWgsUDj-56" edge="1">
          <mxGeometry width="50" height="50" relative="1" as="geometry">
            <mxPoint x="60" y="180" as="sourcePoint" />
            <mxPoint x="110" y="130" as="targetPoint" />
          </mxGeometry>
        </mxCell>
        <mxCell id="7q-zUmtNP64scrMjcJ8D-6" value="" style="endArrow=classic;html=1;rounded=0;exitX=0.5;exitY=0;exitDx=0;exitDy=0;entryX=0.5;entryY=0;entryDx=0;entryDy=0;fillColor=#f8cecc;strokeColor=#b85450;strokeWidth=2;" parent="TmukQRCo_zgDMOWgsUDj-91" source="TmukQRCo_zgDMOWgsUDj-84" target="TmukQRCo_zgDMOWgsUDj-30" edge="1">
          <mxGeometry width="50" height="50" relative="1" as="geometry">
            <mxPoint x="70" y="90" as="sourcePoint" />
            <mxPoint x="70" y="250" as="targetPoint" />
            <Array as="points">
              <mxPoint x="60" y="260" />
              <mxPoint x="220" y="260" />
            </Array>
          </mxGeometry>
        </mxCell>
        <mxCell id="ccG3RUr7SyyTB5PLSfIU-7" value="" style="shape=image;verticalLabelPosition=bottom;labelBackgroundColor=default;verticalAlign=top;aspect=fixed;imageAspect=0;image=data:image/png,iVBORw0KGgoAAAANSUhEUgAAAC4AAAAwCAYAAABuZUjcAAAFOElEQVRoQ+2Yf2hTVxTHzY9mdjhd669a2zRJERxV7PCPZWhV6m833FZFN2HDqcjmmNLWKUXUiv+oqKCioFSlIDpxbo5tbpOtomyygbiKDhWtTdOuq1uRbmHdmv7ycySBGl9y72ueAyGBQ17eOfecz/2++859L7YBT+nH9pRyD0iB/99XLqV4SnFNBVJLJZFQbrd7TW9v773GxsaPNQVVhj0xxXNzc0M2m80BgR17BvAT/N4fDAZ/VFJpBFgKDmwRcOuoW4QNxjr5fQPoDo7TOR7B8W2O9zKBUxp8cUMsAQe4CqgFVBmC3QTuE6fTub+7u/s9ALfgX8z5TLvdXoTvLY5/x2p6enpWNzU13e/PBJICZ+2Kaq9hf2FVQFaoIHw+n7uzs/MLJppJrAP4KcDfUY2L9fcLPC8vz4tyNaIiABUNDQ0HzBZm0psYs1LU7+rqmtrc3NxuJodp8JycnLlc8jMUuY7CE80Ui41lCR1m4i9y/ldyvW0mlylwVCog+RXUPktre8NMIaNYREh3OBy15BuELSPnt7o5zYI3kTiAOpMTFWApvYD/I2Bkcs/LGKyacZUGqi9F9XLsH5ac33Jw1N4ja5Li6SpogC8JMDBHOQ5yLO2xGKth/PTY8eS+LPHErkL1czrwWooXFBS4QqHQ37KBoEq5AvwIAO8Su4LYw9FYrsJnnH+d34tiezi+Jfg24LuG703LwLmJSgHZRuvy0bp+U4ALYCEA3r5x5JhNjm84t8VoyaD6n/gy2tvbM1pbW0MqeC3FSXqdRE4KjlUljOcHvAzwXUyqnOWwOzYO1XfiK8FK8X+uqqMEjyyTDinKpV+rShjr93q9I7lSrwK0E18bXcRfX19/z2CdT+LcSew0Aq1R1VGCezyeQgrLZlNKwmpVwr5+rlQlvzdHzgWY/DwmfyNeDuL/xSc38CuqOkpwaW2oJb27iEsod7/2J7I8BgPslhtWFGfzmhsIBH4ySgK4PDkO1VmSSnCS+Uh2m4JDKdimTR0TiADLga/itOwDj9y40dBI55mAX2om/CjBZTTwvWlpaSPr6ur+UCVM5CfPL/gLEeFlI9XxH8P/EuBjVHV0wO0k7CbRTBJ+p0qoAP8efzHKzzHa3qnzJf5ROs9AOuCiuLwQ7FF1FekgPINLr74fZ4esx+ehs2QZdRbuiVvUucrYRSqBdMGvkSiThKNVCZnkQ7hYVaN9HLAzCPDYA1pWVtZwl8slbXIrdaKdKG45XfCDZFiI7SDp9kTwtE8/7fNrYoyeVWpRe06cPl7JmPexBdT4QSWQLrhsDl+h4lXW5lRVUoEndj02TSaASQ8/z01ZYQRN/FgmW0uc7M4D+e5S1dAClyQsAVFddsAy4GWHs+xDbrlp05jcZZZRmU5ibfD8/PwRvCv+TNLRFPBT4IpOAVUM0IcQYwI5x4XDYU9LS4s8bCk/2uCSiTeWMVxuedYOs1aLuey3lBUSBHDD7gN4BiHPAb+EK3lRN58pcEkaeXY5y6H8FTGfNSmX2ezHDvQlUZmBF7APyXPXTBLT4JI8Ozv7Wf43kfdDuWmPUfQdnaLATgH2A2JL+G5G5eX93dT6BR6FZH3Kv1aVWAcQx7G1vGjIE55MbhiPCeM5J+YHdBanpVtk8HsHy2KjzmTjxSQF3kd9eR8tweRPHgEPYy5MXq7bgJb/DuUFupp7ZCPPKS3JQMvYpMH7ArD+PfTj2UCOA9aJT3pykGPZyj8F+L9kgaPjLQW3CkonTwpcRyUrY1KKW6mmTq6U4joqWRmTUtxKNXVyPQCEoFFPYfxSjwAAAABJRU5ErkJggg==;" vertex="1" parent="TmukQRCo_zgDMOWgsUDj-91">
          <mxGeometry x="70" y="90" width="36.42" height="38" as="geometry" />
        </mxCell>
        <mxCell id="ccG3RUr7SyyTB5PLSfIU-9" value="" style="shape=image;verticalLabelPosition=bottom;labelBackgroundColor=default;verticalAlign=top;aspect=fixed;imageAspect=0;image=data:image/png,iVBORw0KGgoAAAANSUhEUgAAAC4AAAAwCAYAAABuZUjcAAAE+ElEQVRoQ+2YW2hURxjH3Y25FLVV8Mpmk2UbXXzxtkRjtQhqUGhTrKBPUmkUNVEjtfWOdyoqbe2D1EoRkaRFaWuL+NAWbFMt9X4J4uUhIZtsktIQWi/ESy6b/j6Zhbi4Z2bOakHYAx+z2TPz/37zn+/MnI2nz0t6eV5S7j5p8P975dKOpx03dCBdKs8wyst3MUMDrbu9EMcLCgqyOzo6HkLzgLjQ09PT1+PxDKGtzM7O3l9bW3vPmjRhwHMFD4VCA9rb21/1er1rAZ0Wi8XqaH8gZzltP9pa4MNERTQaPZEKfMrggUBgNiBLiUJAhhGi2U08IqRc+hJt3I8B7+NzhBhEHGxsbNzoFj4l8Ly8vEpgigUKgIe032RkZHwfiUSuxYFyc3NfycrKGtLZ2TmMlRhLnw1qgtf4fBXnV7qBdw0O9GkShohzAByyWXq/37+TCS9kXDNtDc4vs4V3BQ70KRJNJspIesQ2qfTPz8+fC/hXfLwP/P6GhoZPbHSswYHeTYK1LPt0SqLaJlliX5x/ne+qAB/PJIpZtTOmelbguLSZBB8gXonTq0yTMO4zGUfMBu7nxHGY8buUHZrDTTWNwVVdvkvyoezFfvbixyZJ2HWK2BbPSt9k4HIP+H9oLgI/y0TXCBzRmYh9TWKp7Rxcm2siroCu0o7TgbMqa9Df2d3dPam5ublGp28KfhPR7fIQUduF1HZEJ6ygt9FuZdyPjJ/j5HgwGMzr6uq6Tf/vcP09nb4WHCfeIuE6km8TRxCdohOV+71KZLvqv9UJXE00Sp8HrKhss46XFpzaPgT0dQS9tAHAK3SivUpkIAdSEctfJs4bgMvZ8AY55LRNDVwOGhJuAnoJ7a+4cVgnypgnJRIHTfw72Xj6VXGvJDMzc2RdXV2rUx6t4+qw2YXIFnaHLU1NTbJ1Jb0ordEA/8lED3OorFbuPzURB/A93KvgORrBY3QnVfCfADkNyDyiFBjZJZJeaqJBKZH6+vq/LcG/pf8cHtLXWlpa5JU46WXi+F6A7wH/Pu1iwH9LpsbzsJo+n3J/PnUqEE8u01Jhtb4gTyljc5yg5Z4WXL1TlNI3B9G91PgvDkst+/x0XVKHE1SO/MGAj9ZpaMF5LfVRc3IgHCfhFcC/TCbKJBfRx/+M+2/KhKTuud9Ie4yVu5XYj5WR0/go4AtTBldLfUpeP0k6BlE5Ra0uk1Jh0hvR/4gox5yjugRax0UAUSmVEkTDuP9O7x8KugSmNc7kLtNXXrT6m2gagasfv//i+gHgRyFeYiIe76NzHGOWy+lMnMDtFSbaRuDKtfW0E4Afyn5+jAQHTBLo+jAp+f0ZJZrUQ9mjGyP3jcEV/A3Az+PMAuJtpx3GJLkqw2q0phJF6F0yHWcLXozwSeJzYgkxE5ekNl1d7Ps1GBFkBWdwIl+wEbECV67PEHgSyok6i3YBW9txm6SybdJ/H+PvMn4i4/+yGW9dKnFxn883iiP9Y6l5YjBxhGN6B8d0mxMAwBOAlR/I44kqk/fuZHrWjvcWUqfqUr6TAyaDqGbZD/LT7o/4250cYEzyQ4BlJyogLrOlLrbdUhMnkBJ4XEy9EcqvlnlEQE0i/g9P+W+WrIQ8hHtsHkCn1Xsu4IkJwuFwZmtrawin++GsPHRGW5xNnb8QcBsAt33T4G6dczsu7bhb59yOSzvu1jm349KOu3XO7bj/APW3nE8LauGpAAAAAElFTkSuQmCC;" vertex="1" parent="TmukQRCo_zgDMOWgsUDj-91">
          <mxGeometry x="164" y="220" width="36" height="37.57" as="geometry" />
        </mxCell>
        <mxCell id="TmukQRCo_zgDMOWgsUDj-105" value="" style="shape=mxgraph.signs.food.food_truck;html=1;pointerEvents=1;fillColor=#000000;strokeColor=none;verticalLabelPosition=bottom;verticalAlign=top;align=center;" parent="1" vertex="1">
          <mxGeometry x="270" y="680" width="100" height="50" as="geometry" />
        </mxCell>
        <mxCell id="TmukQRCo_zgDMOWgsUDj-107" value="" style="shape=image;html=1;verticalAlign=top;verticalLabelPosition=bottom;labelBackgroundColor=#ffffff;imageAspect=0;aspect=fixed;image=https://cdn3.iconfinder.com/data/icons/flat-actions-icons-9/512/Tick_Mark-128.png" parent="1" vertex="1">
          <mxGeometry x="230" y="670" width="40" height="40" as="geometry" />
        </mxCell>
        <mxCell id="7q-zUmtNP64scrMjcJ8D-1" value="" style="html=1;verticalLabelPosition=bottom;align=center;labelBackgroundColor=#ffffff;verticalAlign=top;strokeWidth=2;strokeColor=#000000;shadow=0;dashed=0;shape=mxgraph.ios7.icons.monitor;fillStyle=dashed;fillColor=#000000;" parent="1" vertex="1">
          <mxGeometry x="232.5" y="720" width="35" height="30" as="geometry" />
        </mxCell>
        <mxCell id="7q-zUmtNP64scrMjcJ8D-2" value="" style="curved=1;endArrow=classic;html=1;rounded=0;sketch=1;curveFitting=1;jiggle=2;" parent="1" edge="1">
          <mxGeometry width="50" height="50" relative="1" as="geometry">
            <mxPoint x="210" y="510" as="sourcePoint" />
            <mxPoint x="220" y="670" as="targetPoint" />
            <Array as="points">
              <mxPoint x="230" y="580" />
              <mxPoint x="180" y="530" />
            </Array>
          </mxGeometry>
        </mxCell>
        <mxCell id="7q-zUmtNP64scrMjcJ8D-7" value="" style="endArrow=classic;html=1;rounded=0;exitX=1.058;exitY=0.59;exitDx=0;exitDy=0;fillColor=#f8cecc;strokeColor=#b85450;strokeWidth=2;exitPerimeter=0;" parent="1" source="TmukQRCo_zgDMOWgsUDj-105" edge="1">
          <mxGeometry width="50" height="50" relative="1" as="geometry">
            <mxPoint x="440" y="690" as="sourcePoint" />
            <mxPoint x="590" y="710" as="targetPoint" />
          </mxGeometry>
        </mxCell>
        <mxCell id="7q-zUmtNP64scrMjcJ8D-9" value="&lt;pre&gt;&lt;b&gt;Uscita&lt;/b&gt;&lt;/pre&gt;" style="text;html=1;strokeColor=none;fillColor=none;align=center;verticalAlign=middle;whiteSpace=wrap;rounded=0;" parent="1" vertex="1">
          <mxGeometry x="440" y="710" width="60" height="30" as="geometry" />
        </mxCell>
        <mxCell id="ccG3RUr7SyyTB5PLSfIU-5" value="" style="shape=image;verticalLabelPosition=bottom;labelBackgroundColor=default;verticalAlign=top;aspect=fixed;imageAspect=0;image=data:image/png,iVBORw0KGgoAAAANSUhEUgAAAC4AAAAwCAYAAABuZUjcAAAE40lEQVRoQ+2YWWhUZxTHnUncE4xao5UkM8mkLlVo3AJSA7bUJm8m2latikv7IEhSLLgQI2oFLVHRB4svLiBJCkkwpW5ItVgRXypV0ATcZpxsbqAiojbLjL+DN1BCM99yRyEwFw73Tu53/uf3nXu+LZ4B/fTy9FPuAQnw9/3lEhlPZFwzA4lSkURlZWVt4Jbr8Xied3V17YpGo8Pa29tbNJNo1CxuGff5fJMBLQP6CffVUBzlmcdoGc+DvV5vPvd7XM+MCPtoHDfwnJycEZ2dnWeBzQc2wj2JmBEsikmcl9hQ7DzvToTD4QNuOuAaPDs7+5Pu7m6B+BS7j10FTLJ9iuy+FrjMzMwAGS+mQ3P5KfYIC+K3qq2trdWmA67AAfoFwO8J/IJ7KVmsUUH4/f5JkUhkDe2khF4kJSXNCoVCN1V+vd9bgzMQf0NsHln8FSttbW19ZRIc/yn4HafD4/gaPtPatwIn6Akgi7Alzc3N9SbAvdui9Q9/S0cnw0THGJxAVQIs4AT7wyRYX23RfMK7i+gV6+oZgROgFOGf+cQVLS0t+2IFof4Lk5OTr1G/D1UwTKXfolmFfYTuXVV7ea8NnpGRUUQt1iN+BXGZGfq86OBVXuZh35DFOh0QfG7Q7intC3Ta64J7Eb6O4GhmhMUMxAt9iZO9I3RulfNeGxy/BfjVoZ+iM9C1wBHdC8gMhCeQkfExavVr3tX+5702uPgQ5zkxDhCjXJV1JTjz7hCyIAvG30xdh2PN1XyVEO38mCzraSalIqD4nyPGB8SQMot5KcHJwlrAv0CwMDU1Na2xsbFDJQrAedp8bgG+FZ9yMj5YFUMJDsQ+Pt9AKRUG5WyVoJM5W/Cd+JcxG00PBoO3YsVSgpPxBjLeTsZTyMQKTXDjWcWp8e9I0g6eV6jWCCW4k3E/4A8Rkz2G8sJHdoRymQ7OCsAXEWs/dX7YVcaB+AqBzdgNwJcrqd8OMitw/C7hLhu2WsCPuAJn4RnFwnMfsSbEpr0rcFbaqcQQ8JPczxCr2hW4M9h2cV9HrQdYHNpU8DYZB7waYFk95xDnEHEaXIMHAoF0TjdySNhOufwUS5CDxVgOCA9MahxoWearmLV8dPoB59VZqrOqcnD2QCJeQ0Y+A/zDWODO2bNJ2jDQioA5q/pCaJ+mze+U5C18julscbXBc3Nzx3R0dEgm9yC8MRYMID/Ke+bjatXukI4upTTW08E8mcFw+xf9TarOaoOLEEC7yfo6HgsRl0XG1eWU4HU0F5PtJkoszFFuIp0Nq4SNwJ2BKotLDjYN+KAqgKKs5NgXkk0V2a6jAzeZTSp0NG3ARyIsNewhQzNtT+l8vXJnzMyT1Rm9kUDP1YGWNsbg4kSgbDJ1kcc0gi8ioAwu7Qv/EvwPMgbyma2WoSF1XswUeFtXxApcxFmYhlKX53icCcRlbBuB/1IFJtPzaVOP70p8vuR5CtNfiWr6661rDd4jRG3Kxmu/81uW+j8xOS01ksXHAIq95HkYf5PtwzanTQHglcwmW1Sd/b/3rsF7RGXfDsgP/B6OyYHCiw3CRvH3FOCHcJe/XZa9COPjAl/ojg20+MQNvAeAEsoHciG/PwZwgvzXk2fZW19i9qi0BY17qcQLxFQn7hk3BbBtnwC3zZytXyLjtpmz9Utk3DZztn79NuNvAJIETk9j4nnoAAAAAElFTkSuQmCC;" vertex="1" parent="1">
          <mxGeometry x="190" y="740" width="36.42" height="38" as="geometry" />
        </mxCell>
        <mxCell id="ccG3RUr7SyyTB5PLSfIU-6" value="" style="shape=image;verticalLabelPosition=bottom;labelBackgroundColor=default;verticalAlign=top;aspect=fixed;imageAspect=0;image=data:image/png,iVBORw0KGgoAAAANSUhEUgAAADYAAAA0CAYAAADBjcvWAAAGbElEQVRoQ+2Zf2hVZRjH96tVazYVt0bb3Q/HaLKJijFcIuiidKW0KAs0wVz4RyuoiDTLRKKRSBYUZJBKKCUGZkG6fqlTambNHLVquba7HzeNSzpXq81td30eeQ+cbuee8557z+Im94WHc+553/d5vt/ned7nfc+5yUlXaEu+QnklJYj93yKbiFgiYnHigUQqehWIgoKCPej6OTk5uTslJaWlq6ur1SvdZj0TEjGfz3fj+Pj4tNTU1MxQKDQJAtfxOwMykzFejVzL78Vch4UksqWnp2e3lwRjJiYkALwMUIuQUiUC+A/kL5PIs9+Qc0KaOfXcL+W+nvtZ3J9F1kLwUy8IxkSMtGoAxNOAe5uoTOWaye/pSDpyGhkTkACnazyF2ylKpqrrRa5DEkFkEnKJcft7e3tXxkouamKQ2g6IHEDvB8SDCtgRfm/v7u7u0gGGjimMv2Z4eHg0KytriPYoOp9lrn9sbKw2EAj8pKPHakxUxAoLC18CQDnyMcDWcV2Pl3dFC8I8j9S+C53v8CxEFiz1+/1Ho9Hrmhik7oDIVqQJAHPx7KpYPGsFGhsz0P+ZpCs2qsmAZrfkXBMjfT7HyHlZP9nZ2ctbWlpG3BrVGZ+fn19KxJokxSFZRUZ8pzPPGOOKGGmyBg8+xeTRtLS0+Z2dnbL4/9GKiormAWQtcjcdUt77mSPptAHP/+AGHPZKmNvCnLNUyxlu5roiRrS+QHklxioBecqKFPvWISHEmF2Q6+FawFWKSz8RqGHNnHADEJu3Mf4gshdyq3TnahMjEkWA/hHF2zCwwcoAIGRdVEOgykyANVMHuTcheQCHSCRdNUw/hu0XmFSL7U90JmsTA/QWFD6B5KD8QgRiUub76Z8T3s/8b3g2mz5tm2YdzG/DMWk45iZPieF12XAvoFhOGK6bEU0zMZ4tB+wKorlQ0lcpFTsNjHvXbIRiUkkmyFJYTZ+cN22btvcA8TsAXqY6PeekNLxfle/veX7aiKaRnjzzQ+49dA+o9WgUnfvCyTFHyn4GzpUjWOzESkpKckZGRgIYr4bYcSelFsQEeC3AHwLUDukHpDxbyEG5jBP+r8YcKuFixjVarUecey/j9kH4Kq6Xj2uRmlbEUFiOgq8xNt+qGtoZgMBOqYpuCgf2xtF5GAK3huumbwhdD4NjZ8zE8GIFyk5SmRb19fV9qRsxg5SkIJFZYo6MoUPSFL0F6K9SqShruMiG2DnG7YDYMzETY+HOZOHK/nM7XpSTh20rLi6+AbBySK4VgJBaEU5KNnJVwuX9zGiy3o6ofS9SxM4w+ITTnqaVihDLg1iHGGSN7bVjJaQ4PzYyZrZs0nh2jdV4Ukq2BonMZnQ3mvc9h1TsRe8H6JX3uYhNi5jMxtifXF7FU+siadMlZSoQ/yJu9Nmk4iX66pzeuLWJsRba5YhEkyOOZWPMNsY8bhcpmRgJvNkxVsTy8vJmkdZf0TcHHG1eRWw3oGtIxWlWCk17lXQfjmTUqHTGSUSNPY4zrldry69S9FR4VWTOG/Tdw3NLDGab2hFDqZReOeCWobgzHLhpw7VzZJJx8hBHMLBBFRiZI4TeIiKvG4WH+1xz0QHDecYfwLmW6zYqYjJJ9hCMbqTkb7VFPwGd2H5AiGO/DPtSGW2bdsREC2vjEClTgdd9Toq97ofYL9hupRrW6Oh2RUyto2/Vtwgp6f9Jg9QrGHoEYj6IyWc6x+aKmErHk1wziFqFo3YPBlApF7AvNkFqE6Se11XpmhgHYh8HYj+5vn6i15o6fJ+hYDRTMJbokpJxrompqMn70Eq8eEs0X5B0AJJ+cxl3FGknO27WmWMeExUxVUhaIZafnp5e1tHREXRr2G48pDbTL4fcY5AynyW1zURNLDc3NxtSxj8lywAgX5NialTd1TjrSZSUct1DNtRFqzBqYoZBvHuM+wXI+6y7etZdwC0Yqu2dsj9CZiZz5XuKvP7H9OdEzMRUWsr3xo3cFyLy6tHMgv+IbaF9cHCwLRgMyj8vl1t5eXn6wMCA/NsiJ5n7kXnI1chFnr1IlF5z6xir8Z4QMxTLIRUymwAoX6nyEPmHxbAxyn2qeiZTQogczaSUy2e5D70gZOjwlFg4MPmSS4plAnwyhHPkgw3SyVfkIO9f/V4SCdc1ocQmEriT7gQxJw/FW38iYvEWESc8iYg5eSje+hMRi7eIOOH5G2ZZCGKB/uhCAAAAAElFTkSuQmCC;" vertex="1" parent="1">
          <mxGeometry x="186.21" y="670" width="44" height="42.37" as="geometry" />
        </mxCell>
        <mxCell id="ccG3RUr7SyyTB5PLSfIU-8" value="" style="shape=image;verticalLabelPosition=bottom;labelBackgroundColor=default;verticalAlign=top;aspect=fixed;imageAspect=0;image=data:image/png,iVBORw0KGgoAAAANSUhEUgAAAC4AAAAwCAYAAABuZUjcAAAFFUlEQVRoQ+2Ya2gUVxTHs4nNdsGABZdY89yUaCWKsfqhflCiDeahFaV+CX5Jaz4UmlZrCBLBmhKkiI/aSsFno4b2Q1sxitpW0GBJGynURjC01JjH5mGEtEaJttVk09+RGQnT3Zl7Z7YFYS8cZnbuOf/zv/975t4760t6SpvvKeWdlCD+f89cQvGE4ooKJErFTqicnJyXent7ryqKqeT2nymelZX1BgxmYvd9Pt9Wrs9hf4XD4alKzByc4kY8Ozu7mFyrsUVYIXYPC2DPYBPYI8yPnYF8BdeIlwF4Ik4JLJuYmNgEgSXYswbBFK53sD+wEfrvJicnJ3F9nt8F2DXs79TU1PLOzk4ZnKvmijhlsBQy+yETNBQ9HIlEmrGuwcHB4VhMMjMz5xG3g/6F2E2UX+qKNUHaxCFdQc1+TmwbxIf8fn+lrnLMVDWxe8FogXyJG/JaxHNzc2eg6g2SXpBkfX19r7lJKjFglYJ1FhEOsuK8pYujRZwX8BAJZksSlFrOZVw34WR/8N7h90eQXw95mUXlpkPcR6L7IE9BqYL+/v4bsbJQCnuZlXdj9F9i0K+YfWB+xf0SnqUrs9apcRK8iv9xrJ4kH9slwfci/TIjl6x+qHsNdTdblB9loMcovWpV8sqKQ+YEoMWQlk3FtuEry+HVyco6DLSe/i34y7qv1JSJs5r0opasApV2yKFQKH18fHwI30aUld1TqTFYWfObUP1tlQAl4kVFRVO6uroeQmYlZL62A2aAJfh9A4kaSMiSp9SIayFuFsJkqAQoEQf0BUCvQ6YEMt8pTPt2fN7HZEeVWk8ivhnb2dPTcyVaPC/0AvB/YraCAwMDvzuRVyIO6HJAT5G4DMV/sAPF91N8XzfINnIfJm4+1zU8G2HnLLMh/xCfCnKcjBfxxSQ+C9ibTOWXCsTXWgkyoA1gHCG2B4xQNAzqXFaXncxqQ7yIhwBsB2w7Sfc5gcbqh9jP9BUyqMXRVKdfDmZN5NjolEOpVDgcBUgmahxADe3t2SQBsXoZPDil4HxrJce7NEpZHYZ4rM3rSYgScfEmaQeXZEDnOKlBWcyhTn+x+pk7ajTiwWBwaiAQuAPxOmJ3O+XQIf4hYJvS0tL8HR0d8hL9q5lrOB3tDHCB1cEslZSUlBnd3d23J/ej9lxIf8+zKqf3SOKUiQO8AuAvDGA5X0Rt5naPbxXKHTWdiN/Msz2xNibjqLuL2ZhLGd2Mm+JGuQwD/CPA5bGAOa6+zCFMNqlpQlKWQ+7N9bwdtUutahvYrVzTUTvfibSW4gb4B1y3QCgDNW/FSiA1Tl8tpNfKALARYk7xgtdFI81gpzFY2XRqVFct5VIxSVIK/dz/SgL5OI5Lo4zOM7B5YGapAmoTZ2ksR7lzTHkJ6j3+EvLSIL0N0u8xO+sowdOqWNrEBZhSOE8i+dAtRSWpTVfNeGHl4/mQyqYzOYkr4ka9X+f6IgOoRqkDuswpuSZiVmGtkJaPFK3mmjhrdg4nuVaIR5jqy7xcDXafcyYr48Am367Tid3PoLdpMTacXROXeFaDQgjLZ1q7lA4D2D02NtbAfysPrGSMfwg+47ksjb/hW+t0trcbkCfiApyXl5cN2U8gIgrKX22zMFnHL/AzjefLuJ+P5XMfZqAbUbnZjcpxqXFrYmp2lZy5DaJB7uVg9ifXBzxro6z2UUqXvRI24z0rHi8iujgJ4rqKefVPKO5VQd34hOK6inn1TyjuVUHd+H8A2KBPT03ve+sAAAAASUVORK5CYII=;" vertex="1" parent="1">
          <mxGeometry x="520" y="720" width="36" height="37.57" as="geometry" />
        </mxCell>
      </root>
    </mxGraphModel>
  </diagram>
</mxfile>
